<?xml version="1.0" encoding="UTF-8"?>
<svg width="32px" height="48px" viewBox="0 0 32 48" version="1.1" xmlns="http://www.w3.org/2000/svg" xmlns:xlink="http://www.w3.org/1999/xlink">
    <!-- Generator: Sketch 55.2 (78181) - https://sketchapp.com -->
    <title>Group 43 Copy</title>
    <desc>Created with Sketch.</desc>
    <g id="Page-1" stroke="none" stroke-width="1" fill="none" fill-rule="evenodd">
        <g id="Artboard-Copy-6" transform="translate(-8.000000, 0.000000)" fill="#FFFFFF">
            <g id="Group-43-Copy" transform="translate(24.000000, 24.000000) scale(-1, 1) translate(-24.000000, -24.000000) ">
                <g id="Group" transform="translate(8.000000, 0.000000)">
                    <path d="M14.4040309,30.3181031 C12.6418491,32.2672374 11.6571368,33.1558209 13.1943489,34.6306866 C14.5354398,35.9176119 16.4445308,36.1373134 17.9601671,35.1792239 C19.5211368,34.1927164 20.293258,32.3995224 19.504652,30.7362388 C18.7499853,29.144597 17.7128944,27.6551642 16.6295005,26.2478806 C13.832652,22.6149254 11.0501065,18.9888955 9.64647015,14.5370746 C8.22343985,15.8856119 8.14028833,16.1540299 8.80356106,17.7387463 C9.10950046,18.4692537 9.40913682,19.223403 9.85325803,19.8729552 C12.1451368,23.2231642 14.4930156,26.5363582 16.7948338,29.8801194 C17.1725308,30.4291343 17.6295005,31.0538507 17.6644095,31.665194 C17.6959247,32.2182687 17.3339853,32.9411343 16.9053792,33.3361194 C16.3114398,33.8829851 15.4120459,33.9539104 14.8510762,33.2671045 C14.4733792,32.8042985 14.0394398,31.849791 14.254955,31.5467463 C14.8642479,30.6915025 14.9139399,30.2819548 14.4040309,30.3181031 Z" id="Path"></path>
                    <path d="M12.1279247,10.5623881 C10.5337429,11.9629851 10.6256217,13.4863284 11.4915611,15.0643582 C12.4101065,16.7391045 13.2530156,18.4711642 14.3424702,20.0336716 C16.2976217,22.8386866 18.4748338,25.4930149 20.4367732,28.2934925 C21.6062277,29.9629851 22.1836823,31.8046567 21.3875611,33.9023284 C20.3325308,36.6808358 17.213258,38.2359403 14.3257429,37.463403 C11.0937429,36.5989254 9.45131864,32.7481791 10.3153186,30.5521194 C10.8176217,29.2759403 11.565258,28.0933731 12.2501065,26.7782687 C11.9427126,26.4580299 11.5434398,26.0415522 11.1451368,25.6260299 C8.65568227,27.9546269 7.27047015,31.3449552 8.48622773,34.6022687 C9.87071258,38.3106866 13.9187126,40.4850149 17.9936217,39.438806 C21.8336217,38.4530149 24.3659853,34.935403 23.6564095,30.9934328 C23.326955,29.1625075 22.3759247,27.2687761 21.2055005,25.7877015 C17.5078035,21.1085373 13.9344702,16.398806 12.1279247,10.5623881 L12.1279247,10.5623881 Z" id="Path"></path>
                    <path d="M8.80574288,21.8125373 C8.078955,22.7560597 7.31410652,23.5904478 6.73253076,24.534209 C5.15604591,27.0918209 3.85350046,29.6950448 4.06271258,32.8828657 C4.59822773,41.0368955 14.013258,46.2507463 21.3405308,42.4183881 C27.2748338,39.3141493 30.5465914,31.478209 24.9936217,24.3202388 C21.9599247,20.409791 18.7558035,16.6013134 16.5788338,12.1284776 C15.6350762,10.1891343 14.9439247,8.13014925 14.1381065,6.12608955 C13.3776217,7.22913433 12.9511974,8.43032836 13.533258,9.82638806 C14.037258,11.0364179 14.4564095,12.2825075 15.0016217,13.4734328 C17.0319247,17.9082985 20.3211368,21.4980299 23.2200459,25.3568955 C25.0893792,27.8447761 26.2888944,30.5344478 25.5499853,33.8574328 C24.016652,40.7546269 16.0593186,43.8934925 10.2013792,39.8345075 C7.55168227,37.9983284 5.39313682,33.6723582 6.3579853,30.0783284 C6.89228833,28.0881194 7.84210652,26.3787463 9.08840955,24.8561194 C10.0585914,23.6711642 9.84016712,22.8649552 8.80574288,21.8125373 L8.80574288,21.8125373 Z" id="Path"></path>
                    <path d="M15.846955,0 C15.6544702,0.807641791 15.3764095,1.60668657 15.2927732,2.42531343 C15.2074398,3.26232836 15.1405308,4.16549254 15.3642883,4.95785075 C16.3005308,8.27056716 17.7735005,11.3724179 19.7378641,14.2063284 C22.0787126,17.5825672 24.6307126,20.8167164 26.9521671,24.2048955 C28.502955,26.4685373 29.8505914,28.8931343 29.8173792,31.7576119 C29.7162883,40.3725373 22.4631974,46.6340299 13.8173792,45.4020299 C7.1199247,44.4472836 2.34925803,39.0887164 2.09471258,32.3290746 C1.95410652,28.5891343 3.62416712,25.3084179 6.08453076,22.5069851 C8.04380349,20.2760597 8.2159247,19.8863284 6.94562167,17.7633433 C5.24865197,20.192 3.44477318,22.4458507 2.0159247,24.9103284 C0.605500455,27.3423284 -0.166135908,30.1284776 0.0302277279,32.9198806 C0.370591364,37.7533134 2.57156106,41.7681194 6.60356106,44.6354627 C13.3441671,49.4294925 22.3318035,48.4511045 27.8607732,42.327403 C30.9936217,38.8575522 32.2935005,34.7436418 31.6794398,30.1299104 C31.1916823,26.4647164 29.0699853,23.5460299 26.989258,20.6041791 C24.4115611,16.9595224 21.8161671,13.3165373 19.4639247,9.53050746 C17.6585914,6.62471642 16.6159247,3.35904478 15.846955,0 L15.846955,0 Z" id="Path"></path>
                </g>
                <path d="M23.97,35.3 C25.8245017,35.3 27.32,33.8627679 27.32,32.1 C27.32,30.3372321 25.8245017,28.9 23.97,28.9 C22.1154983,28.9 20.62,30.3372321 20.62,32.1 C20.62,33.8627679 22.1154983,35.3 23.97,35.3 Z" id="Oval" stroke="#FFFFFF"></path>
            </g>
        </g>
    </g>
</svg>