<?xml version="1.0" standalone="no"?>
<!DOCTYPE svg PUBLIC "-//W3C//DTD SVG 20010904//EN"
 "http://www.w3.org/TR/2001/REC-SVG-20010904/DTD/svg10.dtd">
<svg version="1.0" xmlns="http://www.w3.org/2000/svg"
 width="470.000000pt" height="470.000000pt" viewBox="0 0 470.000000 470.000000"
 preserveAspectRatio="xMidYMid meet">
<metadata>
Created by potrace 1.11, written by Peter Selinger 2001-2013
</metadata>
<g transform="translate(0.000000,470.000000) scale(0.100000,-0.100000)"
fill="#000000" stroke="none">
<path d="M549 3036 c-2 -2 -38 -6 -79 -9 -41 -4 -88 -9 -105 -12 l-30 -6 2
-652 c1 -359 2 -659 2 -668 1 -12 18 -19 74 -26 106 -15 447 -13 540 3 231 41
392 138 489 294 39 63 60 106 65 134 2 11 8 25 14 32 5 6 9 16 8 20 -1 5 0 11
1 14 13 34 7 40 -35 40 -43 0 -45 -1 -55 -39 -26 -97 -80 -186 -159 -259 -46
-43 -191 -122 -225 -122 -9 0 -25 -4 -34 -9 -61 -32 -445 -46 -593 -22 -3 1
-5 267 -5 593 1 583 1 591 21 595 130 23 439 22 575 -2 143 -26 283 -113 354
-219 39 -59 76 -149 76 -186 0 -17 6 -20 46 -20 l46 0 -7 43 c-11 68 -61 177
-109 238 -83 106 -200 180 -348 219 -71 20 -114 23 -304 26 -121 2 -222 2
-225 0z"/>
<path d="M2269 3036 c-2 -2 -35 -7 -74 -11 -64 -6 -99 -10 -117 -14 -4 0 -7
-302 -7 -670 l1 -669 71 -9 c124 -16 452 -13 547 4 96 18 222 61 285 97 131
77 233 210 278 364 16 52 16 52 -6 51 -55 -2 -71 -14 -89 -63 -42 -120 -143
-236 -248 -287 -49 -24 -85 -40 -100 -44 -3 0 -14 -4 -25 -8 -11 -3 -31 -8
-45 -11 -14 -3 -36 -7 -50 -10 -82 -19 -390 -29 -390 -14 0 5 -8 4 -19 -1 -10
-6 -21 -8 -24 -5 -3 3 -24 6 -47 7 -22 1 -44 7 -48 14 -4 6 -7 274 -6 595 1
567 1 583 20 585 99 11 190 16 304 16 182 0 261 -9 355 -40 28 -10 52 -17 55
-18 23 -2 138 -86 178 -129 63 -69 114 -176 121 -253 1 -8 17 -13 46 -13 l45
0 -5 33 c-11 58 -53 166 -84 216 -59 92 -130 154 -236 207 -132 65 -192 76
-451 80 -128 1 -233 1 -235 0z"/>
<path d="M3887 2993 c-3 -5 -5 -50 -4 -100 l0 -93 356 0 356 0 0 98 0 97 -352
3 c-193 1 -354 -1 -356 -5z"/>
<path d="M799 2826 c-2 -2 -30 -6 -62 -10 -31 -3 -69 -9 -82 -12 l-25 -6 0
-154 0 -154 40 0 c22 0 40 3 41 8 1 4 2 55 3 114 0 58 4 110 8 113 11 12 133
8 191 -5 101 -24 179 -87 219 -179 42 -97 33 -305 -18 -404 -25 -48 -85 -107
-134 -132 -55 -28 -157 -48 -220 -43 l-45 3 0 105 0 105 -42 3 -43 3 -1 -68
c-2 -238 -3 -231 51 -234 210 -12 336 22 437 119 54 53 102 148 119 239 9 51
12 224 3 243 -4 8 -12 35 -19 60 -40 152 -176 258 -351 273 -26 3 -51 7 -57
10 -5 4 -11 5 -13 3z"/>
<path d="M2399 2808 l-37 -9 2 -142 c1 -78 -2 -146 -5 -152 -5 -6 13 -10 46
-10 29 0 51 4 48 8 -6 10 -6 217 0 223 11 11 167 3 212 -10 146 -44 228 -165
228 -335 0 -121 -18 -204 -60 -268 -26 -41 -94 -104 -104 -97 -5 3 -9 1 -9 -4
0 -32 -269 -72 -271 -41 0 8 0 58 0 112 l1 98 -43 -3 -42 -4 -1 -142 -1 -142
26 -7 c45 -12 206 -5 272 12 210 53 321 222 315 479 -3 128 -7 149 -43 225
-45 95 -132 166 -248 202 -48 15 -235 19 -286 7z"/>
<path d="M4349 2328 c-2 -261 -2 -261 -18 -308 -46 -140 -210 -168 -403 -71
l-56 29 0 -111 c0 -62 5 -118 10 -124 21 -26 151 -56 253 -59 115 -4 166 5
251 45 102 48 163 123 192 239 14 54 17 116 17 327 l0 260 -122 3 -123 3 -1
-233z"/>
</g>
</svg>
